<svg xmlns="http://www.w3.org/2000/svg" width="394.853" height="394.898" viewBox="0 0 394.853 394.898">
  <g id="logo-sun" transform="translate(-48.19 -126.14)">
    <g id="Group_4" data-name="Group 4" transform="translate(48.19 126.14)">
      <g id="Group_1" data-name="Group 1">
        <path id="Path_1" data-name="Path 1" d="M154.229,235.254a3.239,3.239,0,0,0,4.567,0l68.667-68.667a3.229,3.229,0,0,0-4.567-4.567l-68.667,68.667A3.2,3.2,0,0,0,154.229,235.254Z" transform="translate(86.688 -81.295)" fill="#bb8f10"/>
        <path id="Path_2" data-name="Path 2" d="M158.213,238.253a3.244,3.244,0,0,0,4.43,1.187L274.767,174.7a3.243,3.243,0,1,0-3.243-5.618L159.4,233.823A3.255,3.255,0,0,0,158.213,238.253Z" transform="translate(92.477 -71.575)" fill="#bb8f10"/>
        <path id="Path_3" data-name="Path 3" d="M164.924,222.044a3.263,3.263,0,0,0-2.284-3.973L68.854,192.951a3.241,3.241,0,1,0-1.69,6.257l93.786,25.119A3.252,3.252,0,0,0,164.924,222.044Z" transform="translate(-26.905 -40.523)" fill="#bb8f10"/>
        <path id="Path_4" data-name="Path 4" d="M191.556,217.665h92.919a3.243,3.243,0,1,0,0-6.485H169.2Q180.572,214.023,191.556,217.665Z" transform="translate(107.135 -16.985)" fill="#bb8f10"/>
        <path id="Path_5" data-name="Path 5" d="M149.021,255.7a3.25,3.25,0,0,0,4.43-1.188L218.19,142.394a3.243,3.243,0,1,0-5.618-3.243L147.833,251.274A3.244,3.244,0,0,0,149.021,255.7Z" transform="translate(79.154 -111.52)" fill="#bb8f10"/>
        <path id="Path_6" data-name="Path 6" d="M164.685,224.328l93.786-25.119a3.241,3.241,0,1,0-1.69-6.257L163,218.071a3.234,3.234,0,0,0-2.284,3.973A3.273,3.273,0,0,0,164.685,224.328Z" transform="translate(96.099 -40.523)" fill="#bb8f10"/>
        <path id="Path_7" data-name="Path 7" d="M136.473,262.081a3.241,3.241,0,0,0,3.243-3.243V129.383a3.243,3.243,0,1,0-6.485,0V258.838A3.241,3.241,0,0,0,136.473,262.081Z" transform="translate(60.965 -126.14)" fill="#bb8f10"/>
        <path id="Path_8" data-name="Path 8" d="M61.207,174.711,173.33,239.45a3.243,3.243,0,0,0,3.243-5.618L64.449,169.093a3.243,3.243,0,0,0-3.243,5.618Z" transform="translate(-33.575 -71.562)" fill="#bb8f10"/>
        <path id="Path_9" data-name="Path 9" d="M142.97,242.884a3.263,3.263,0,0,0,3.973-2.283l25.119-93.786a3.241,3.241,0,0,0-6.257-1.69l-25.119,93.786A3.227,3.227,0,0,0,142.97,242.884Z" transform="translate(70.384 -104.842)" fill="#bb8f10"/>
        <path id="Path_10" data-name="Path 10" d="M51.433,217.653h92.919q11-3.631,22.356-6.463H51.433a3.231,3.231,0,1,0,0,6.463Z" transform="translate(-48.19 -16.972)" fill="#bb8f10"/>
        <path id="Path_11" data-name="Path 11" d="M152.727,235.254a3.229,3.229,0,0,0,4.567-4.567L88.627,162.02a3.23,3.23,0,0,0-4.567,4.567Z" transform="translate(-3.358 -81.295)" fill="#bb8f10"/>
        <path id="Path_12" data-name="Path 12" d="M155.883,254.517a3.243,3.243,0,0,0,5.618-3.243L96.761,139.151a3.243,3.243,0,0,0-5.618,3.243Z" transform="translate(6.388 -111.52)" fill="#bb8f10"/>
        <path id="Path_13" data-name="Path 13" d="M140.121,240.592a3.241,3.241,0,1,0,6.257-1.69l-25.119-93.786a3.241,3.241,0,1,0-6.257,1.69Z" transform="translate(37.427 -104.856)" fill="#bb8f10"/>
      </g>
      <g id="Group_2" data-name="Group 2" transform="translate(32.813 196.798)">
        <path id="Path_14" data-name="Path 14" d="M389.911,258.2a311.619,311.619,0,0,0-325.5,0,3.885,3.885,0,0,0,4.065,6.622,303.814,303.814,0,0,1,317.371,0,3.885,3.885,0,0,0,4.065-6.622Z" transform="translate(-62.559 -212.32)" fill="#75af6c"/>
      </g>
      <g id="Group_3" data-name="Group 3" transform="translate(17.95 226.554)">
        <path id="Path_15" data-name="Path 15" d="M133.23,242.763V350.684a16.179,16.179,0,0,0,4.75,11.441l2.672,2.672a3.229,3.229,0,0,0,4.567-4.567l-2.672-2.672a9.715,9.715,0,0,1-2.854-6.874V242.763a3.231,3.231,0,1,0-6.462,0Z" transform="translate(43.015 -207.163)" fill="#006eb7"/>
        <path id="Path_16" data-name="Path 16" d="M134.163,287.567l12.4,12.4a9.714,9.714,0,0,1,2.854,6.874v10.824a3.243,3.243,0,0,0,6.485,0V306.84a16.18,16.18,0,0,0-4.75-11.441l-12.4-12.4a3.238,3.238,0,0,0-4.59,4.567Z" transform="translate(43.019 -152.563)" fill="#006eb7"/>
        <path id="Path_17" data-name="Path 17" d="M140.671,242.645l19.547,72.983a16.145,16.145,0,0,0,7.536,9.819l3.288,1.9a3.243,3.243,0,1,0,3.243-5.618L171,319.83a9.626,9.626,0,0,1-4.521-5.892l-19.547-72.983a3.241,3.241,0,1,0-6.257,1.69Z" transform="translate(52.427 -208.392)" fill="#006eb7"/>
        <path id="Path_18" data-name="Path 18" d="M149.521,271.991l15.186,8.769a9.627,9.627,0,0,1,4.521,5.892l2.809,10.459a3.241,3.241,0,0,0,6.257-1.69l-2.809-10.459a16.146,16.146,0,0,0-7.536-9.819l-15.186-8.769a3.243,3.243,0,0,0-3.243,5.618Z" transform="translate(61.846 -173.25)" fill="#006eb7"/>
        <path id="Path_19" data-name="Path 19" d="M154.224,236.75l53.413,53.413a16.18,16.18,0,0,0,11.441,4.75h3.791a3.243,3.243,0,0,0,0-6.485h-3.791a9.714,9.714,0,0,1-6.873-2.854L158.791,232.16a3.238,3.238,0,1,0-4.567,4.59Z" transform="translate(68.743 -217.819)" fill="#006eb7"/>
        <path id="Path_20" data-name="Path 20" d="M176.553,257.733h17.515a9.714,9.714,0,0,1,6.874,2.854l7.65,7.65a3.229,3.229,0,0,0,4.567-4.567l-7.65-7.65a16.18,16.18,0,0,0-11.441-4.75H176.553a3.231,3.231,0,1,0,0,6.463Z" transform="translate(94.461 -192.081)" fill="#006eb7"/>
        <path id="Path_21" data-name="Path 21" d="M147.833,240.594l53.961,93.467a16.127,16.127,0,0,0,9.819,7.536l3.654.982a3.241,3.241,0,1,0,1.69-6.257l-3.654-.982a9.625,9.625,0,0,1-5.892-4.522l-53.961-93.466a3.243,3.243,0,0,0-5.618,3.243Z" transform="translate(61.204 -212.027)" fill="#006eb7"/>
        <path id="Path_22" data-name="Path 22" d="M171.055,278.918l16.921,4.544a9.626,9.626,0,0,1,5.892,4.521l5.412,9.363A3.243,3.243,0,1,0,204.9,294.1l-5.412-9.363a16.126,16.126,0,0,0-9.819-7.536l-16.921-4.544a3.241,3.241,0,0,0-1.69,6.257Z" transform="translate(88.496 -164.763)" fill="#006eb7"/>
        <path id="Path_23" data-name="Path 23" d="M159.409,231.4l93.467,53.961a16.165,16.165,0,0,0,12.263,1.621l3.654-.982a3.241,3.241,0,1,0-1.69-6.257l-3.654.982a9.361,9.361,0,0,1-2.512.32,9.709,9.709,0,0,1-4.864-1.3l-93.467-53.961a3.25,3.25,0,0,0-4.43,1.188A3.3,3.3,0,0,0,159.409,231.4Z" transform="translate(74.52 -225.35)" fill="#006eb7"/>
        <path id="Path_24" data-name="Path 24" d="M198.65,255.779l16.921-4.544a9.354,9.354,0,0,1,2.512-.32,9.71,9.71,0,0,1,4.864,1.3l9.363,5.412a3.243,3.243,0,0,0,3.243-5.618L226.19,246.6a16.166,16.166,0,0,0-12.263-1.621l-16.921,4.544a3.235,3.235,0,0,0,1.644,6.257Z" transform="translate(121.803 -200.86)" fill="#006eb7"/>
        <path id="Path_25" data-name="Path 25" d="M142.228,240.955l-19.547,72.983a9.626,9.626,0,0,1-4.521,5.892l-3.288,1.9a3.243,3.243,0,1,0,3.243,5.617l3.288-1.9a16.127,16.127,0,0,0,7.536-9.819l19.547-72.983a3.241,3.241,0,1,0-6.257-1.69Z" transform="translate(17.37 -208.392)" fill="#006eb7"/>
        <path id="Path_26" data-name="Path 26" d="M133.671,266.373l-15.186,8.769a16.127,16.127,0,0,0-7.536,9.819l-2.809,10.459a3.241,3.241,0,0,0,6.257,1.69l2.809-10.459a9.626,9.626,0,0,1,4.521-5.892l15.186-8.769a3.243,3.243,0,0,0-3.243-5.618Z" transform="translate(10.673 -173.25)" fill="#006eb7"/>
        <path id="Path_27" data-name="Path 27" d="M151.44,232.168,98.027,285.581a9.714,9.714,0,0,1-6.874,2.854H87.363a3.243,3.243,0,0,0,0,6.485h3.791a16.18,16.18,0,0,0,11.441-4.75l53.413-53.413a3.238,3.238,0,0,0-4.567-4.59Z" transform="translate(-20.021 -217.805)" fill="#006eb7"/>
        <path id="Path_28" data-name="Path 28" d="M115.665,251.27H98.15a16.18,16.18,0,0,0-11.441,4.75l-7.65,7.65a3.229,3.229,0,0,0,4.567,4.567l7.65-7.65a9.715,9.715,0,0,1,6.874-2.854h17.515a3.231,3.231,0,1,0,0-6.463Z" transform="translate(-27.726 -192.081)" fill="#006eb7"/>
        <path id="Path_29" data-name="Path 29" d="M156.292,237.351l-53.961,93.466a9.625,9.625,0,0,1-5.892,4.522l-3.654.982a3.241,3.241,0,1,0,1.69,6.257l3.654-.982a16.147,16.147,0,0,0,9.819-7.536l53.961-93.467a3.243,3.243,0,1,0-5.618-3.243Z" transform="translate(-11.971 -212.027)" fill="#006eb7"/>
        <path id="Path_30" data-name="Path 30" d="M117.166,272.661l-16.921,4.544a16.146,16.146,0,0,0-9.819,7.536L85.013,294.1a3.243,3.243,0,1,0,5.618,3.243l5.412-9.363a9.626,9.626,0,0,1,5.892-4.521l16.921-4.544a3.234,3.234,0,0,0,2.284-3.973A3.274,3.274,0,0,0,117.166,272.661Z" transform="translate(-19.43 -164.763)" fill="#006eb7"/>
        <path id="Path_31" data-name="Path 31" d="M170.421,225.781,76.954,279.742a9.649,9.649,0,0,1-4.864,1.3,10.38,10.38,0,0,1-2.512-.32l-3.654-.982A3.241,3.241,0,1,0,64.235,286l3.654.982a16.284,16.284,0,0,0,4.179.548,16.074,16.074,0,0,0,8.084-2.169L173.663,231.4a3.243,3.243,0,1,0-3.243-5.617Z" transform="translate(-48.616 -225.348)" fill="#006eb7"/>
        <path id="Path_32" data-name="Path 32" d="M96.218,249.523,79.3,244.978a16.283,16.283,0,0,0-4.179-.548,16.076,16.076,0,0,0-8.084,2.169l-9.363,5.412a3.243,3.243,0,1,0,3.243,5.618l9.363-5.412a9.649,9.649,0,0,1,4.864-1.3,10.37,10.37,0,0,1,2.512.32l16.921,4.544a3.235,3.235,0,1,0,1.644-6.257Z" transform="translate(-56.05 -200.86)" fill="#006eb7"/>
      </g>
    </g>
  </g>
</svg>
