<svg id="content_copy_black_24dp" xmlns="http://www.w3.org/2000/svg" width="18.779" height="18.779" viewBox="0 0 18.779 18.779">
  <path id="Path_265" data-name="Path 265" d="M0,0H18.779V18.779H0Z" fill="none"/>
  <path id="Path_266" data-name="Path 266" d="M12.955,1H3.565A1.57,1.57,0,0,0,2,2.565V13.52H3.565V2.565h9.39ZM15.3,4.13H6.695A1.57,1.57,0,0,0,5.13,5.695V16.649a1.57,1.57,0,0,0,1.565,1.565H15.3a1.57,1.57,0,0,0,1.565-1.565V5.695A1.57,1.57,0,0,0,15.3,4.13Zm0,12.52H6.695V5.695H15.3Z" transform="translate(-0.435 -0.218)" fill="#7e8b94" stroke="#fff" stroke-width="0.3"/>
</svg>
