<svg id="domain_black_24dp_1_" data-name="domain_black_24dp (1)" xmlns="http://www.w3.org/2000/svg" width="20.219" height="20.219" viewBox="0 0 20.219 20.219">
  <path id="Path_92608" data-name="Path 92608" d="M0,0H20.219V20.219H0Z" fill="none"/>
  <path id="Path_92609" data-name="Path 92609" d="M10.425,6.37V3H2V18.164H18.849V6.37ZM5.37,16.479H3.685V14.795H5.37Zm0-3.37H3.685V11.425H5.37Zm0-3.37H3.685V8.055H5.37Zm0-3.37H3.685V4.685H5.37Zm3.37,10.11H7.055V14.795H8.74Zm0-3.37H7.055V11.425H8.74Zm0-3.37H7.055V8.055H8.74Zm0-3.37H7.055V4.685H8.74Zm8.425,10.11h-6.74V14.795H12.11V13.11H10.425V11.425H12.11V9.74H10.425V8.055h6.74ZM15.479,9.74H13.795v1.685h1.685Zm0,3.37H13.795v1.685h1.685Z" transform="translate(-0.315 -0.473)" fill="#0e397d"/>
</svg>
