<svg xmlns="http://www.w3.org/2000/svg" width="18.225" height="25.434" viewBox="0 0 18.225 25.434">
  <g id="git-branch" transform="translate(0.1 0.1)">
    <path id="git-branch-2" data-name="git-branch" d="M21.253,7.057a3.595,3.595,0,0,0-1.8,6.711v.5s0,3.605-3.605,3.605a7.638,7.638,0,0,0-3.605.811v-8.52a3.605,3.605,0,1,0-3.606,0V21.977a3.6,3.6,0,1,0,4.444.665,3.355,3.355,0,0,1,2.768-1.165c7.153,0,7.209-7.209,7.209-7.209v-.5a3.595,3.595,0,0,0-1.8-6.711Zm-10.814-1.8a1.8,1.8,0,1,1-1.8,1.8A1.8,1.8,0,0,1,10.438,5.255Zm0,21.629a1.8,1.8,0,1,1,1.8-1.8A1.8,1.8,0,0,1,10.438,26.884Zm10.814-14.42a1.8,1.8,0,1,1,1.8-1.8A1.8,1.8,0,0,1,21.253,12.464Z" transform="translate(-6.831 -3.453)" fill="#7e8b94" stroke="#fff" stroke-width="0.2"/>
  </g>
</svg>
