<svg id="Group_83" data-name="Group 83" xmlns="http://www.w3.org/2000/svg" width="20.265" height="20.265" viewBox="0 0 20.265 20.265">
  <path id="Path_86" data-name="Path 86" d="M3,5.252V21.013a2.251,2.251,0,0,0,2.252,2.252h6.755V3H5.252A2.251,2.251,0,0,0,3,5.252ZM9.755,21.013h-4.5V5.252h4.5Z" transform="translate(-3 -3)" fill="#fff"/>
  <path id="Path_87" data-name="Path 87" d="M19.755,3H13v9.007h9.007V5.252A2.258,2.258,0,0,0,19.755,3Zm0,6.755h-4.5v-4.5h4.5Z" transform="translate(-1.742 -3)" fill="#fff"/>
  <path id="Path_88" data-name="Path 88" d="M13,22.007h6.755a2.258,2.258,0,0,0,2.252-2.252V13H13Zm2.252-6.755h4.5v4.5h-4.5Z" transform="translate(-1.742 -1.742)" fill="#fff"/>
</svg>
