<svg xmlns="http://www.w3.org/2000/svg" width="26" height="24" viewBox="0 0 26 24">
  <g id="Group_6332" data-name="Group 6332" transform="translate(-17 -486.816)">
    <g id="notification_add_black_24dp" transform="translate(17 486.816)">
      <rect id="Rectangle_2100" data-name="Rectangle 2100" width="24" height="24" fill="none"/>
      <g id="Group_5761" data-name="Group 5761">
        <path id="Path_92633" data-name="Path 92633" d="M16,14v3H8V10a4,4,0,0,1,4-4,3.89,3.89,0,0,1,2.28.72l1.43-1.43A5.87,5.87,0,0,0,13.5,4.2V3.5a1.5,1.5,0,0,0-3,0v.7A5.987,5.987,0,0,0,6,10v7H4v2H20V17H18V14Zm-4,8a2.006,2.006,0,0,0,2-2H10A2.006,2.006,0,0,0,12,22Z" fill="#fff"/>
      </g>
    </g>
    <path id="Path_92634" data-name="Path 92634" d="M20.75,16a4.338,4.338,0,0,0-.06-.63l1.14-1.01-1-1.73-1.45.49a3.647,3.647,0,0,0-1.08-.63L18,11H16l-.3,1.49a3.647,3.647,0,0,0-1.08.63l-1.45-.49-1,1.73,1.14,1.01a4.338,4.338,0,0,0-.06.63,4.338,4.338,0,0,0,.06.63l-1.14,1.01,1,1.73,1.45-.49a3.647,3.647,0,0,0,1.08.63L16,21h2l.3-1.49a3.647,3.647,0,0,0,1.08-.63l1.45.49,1-1.73-1.14-1.01A4.338,4.338,0,0,0,20.75,16ZM17,18a2,2,0,1,1,2-2A2.006,2.006,0,0,1,17,18Z" transform="translate(21.17 479.816)" fill="#fff"/>
  </g>
</svg>
