<svg id="images-square-outlined-interface-button-symbol" xmlns="http://www.w3.org/2000/svg" width="68.398" height="68.398" viewBox="0 0 68.398 68.398">
  <g id="_x36__40_">
    <g id="Group_4732" data-name="Group 4732">
      <path id="Path_15873" data-name="Path 15873" d="M51.3,25.649ZM8.55,0h51.3A8.55,8.55,0,0,1,68.4,8.55v51.3a8.55,8.55,0,0,1-8.55,8.55H8.55A8.55,8.55,0,0,1,0,59.849V8.55A8.55,8.55,0,0,1,8.55,0Zm51.3,64.124a4.275,4.275,0,0,0,4.275-4.275V57.839L47.141,42.631,25.647,64.124ZM4.275,59.849A4.275,4.275,0,0,0,8.55,64.124H19.6L35.345,48.167,17.1,29.922,4.275,42.747Zm0-23.238L17.1,23.512,38.35,45.124l8.674-8.787,17.1,15.68V8.55a4.275,4.275,0,0,0-4.275-4.275H8.55A4.275,4.275,0,0,0,4.275,8.55Z" fill="#687782"/>
    </g>
  </g>
</svg>
