<svg id="list_alt_black_24dp" xmlns="http://www.w3.org/2000/svg" width="25.122" height="25.122" viewBox="0 0 25.122 25.122">
  <path id="Path_92618" data-name="Path 92618" d="M0,0H25.122V25.122H0Z" fill="none"/>
  <path id="Path_92619" data-name="Path 92619" d="M11.374,7.187h6.281V9.281H11.374Zm0,4.187h6.281v2.094H11.374Zm0,4.187h6.281v2.094H11.374ZM7.187,7.187H9.281V9.281H7.187Zm0,4.187H9.281v2.094H7.187Zm0,4.187H9.281v2.094H7.187ZM20.9,3H3.942A.938.938,0,0,0,3,3.942V20.9a1.012,1.012,0,0,0,.942.942H20.9a1.11,1.11,0,0,0,.942-.942V3.942A1.012,1.012,0,0,0,20.9,3ZM19.748,19.748H5.094V5.094H19.748Z" transform="translate(0.14 0.14)" fill="#fff"/>
</svg>
