<svg id="manage_accounts_black_24dp_3_" data-name="manage_accounts_black_24dp (3)" xmlns="http://www.w3.org/2000/svg" width="24" height="24" viewBox="0 0 24 24">
  <g id="Group_5705" data-name="Group 5705">
    <path id="Path_92603" data-name="Path 92603" d="M0,0H24V24H0Z" fill="none"/>
  </g>
  <g id="Group_5707" data-name="Group 5707" transform="translate(0 -1)">
    <g id="Group_5706" data-name="Group 5706">
      <path id="Path_92604" data-name="Path 92604" d="M4,18v-.65a.946.946,0,0,1,.41-.81A10.889,10.889,0,0,1,10,15a.22.22,0,0,1,.08.01,6.886,6.886,0,0,1,.59-1.98c-.22-.02-.44-.03-.67-.03a12.876,12.876,0,0,0-6.61,1.82A2.922,2.922,0,0,0,2,17.35V20h9.26a7.133,7.133,0,0,1-.97-2Z" fill="#1e4686"/>
      <path id="Path_92605" data-name="Path 92605" d="M10,12A4,4,0,1,0,6,8,4,4,0,0,0,10,12Zm0-6A2,2,0,1,1,8,8,2.006,2.006,0,0,1,10,6Z" fill="#1e4686"/>
      <path id="Path_92606" data-name="Path 92606" d="M20.75,16a4.338,4.338,0,0,0-.06-.63l1.14-1.01-1-1.73-1.45.49a3.647,3.647,0,0,0-1.08-.63L18,11H16l-.3,1.49a3.647,3.647,0,0,0-1.08.63l-1.45-.49-1,1.73,1.14,1.01a4.338,4.338,0,0,0-.06.63,4.338,4.338,0,0,0,.06.63l-1.14,1.01,1,1.73,1.45-.49a3.647,3.647,0,0,0,1.08.63L16,21h2l.3-1.49a3.647,3.647,0,0,0,1.08-.63l1.45.49,1-1.73-1.14-1.01A4.338,4.338,0,0,0,20.75,16ZM17,18a2,2,0,1,1,2-2A2.006,2.006,0,0,1,17,18Z" fill="#1e4686"/>
    </g>
  </g>
</svg>
