<svg xmlns="http://www.w3.org/2000/svg" width="19.86" height="14.769" viewBox="0 0 19.86 14.769">
  <g id="XMLID_2_" transform="translate(0 0)">
    <path id="XMLID_4_" d="M3.082,109.514H13.541a.9.9,0,1,0,0-1.805H3.082l1.167-1.167a.9.9,0,1,0-1.277-1.277L.265,107.973c-.021.021-.041.043-.059.066l-.013.017c-.014.018-.027.035-.04.054l-.01.017c-.012.019-.025.039-.036.059L.1,108.2c-.011.022-.022.044-.032.068l0,.009c-.01.024-.019.049-.027.074l0,.01c-.007.025-.014.05-.019.076,0,.008,0,.016,0,.023s-.007.043-.01.064a.89.89,0,0,0,0,.18c0,.022.006.044.01.065s0,.015,0,.023c.005.026.012.051.019.076l0,.009c.008.025.017.05.027.075l0,.008c.01.023.021.046.032.068l.006.012c.011.021.023.04.036.06l.01.016c.012.019.026.036.04.054l.013.017c.019.023.039.045.059.066l2.708,2.708a.9.9,0,1,0,1.277-1.277Z" transform="translate(0 -101.227)" fill="#1e4685"/>
    <path id="XMLID_5_" d="M109.131,42.3A7.379,7.379,0,0,0,103,45.569a.9.9,0,0,0,1.5,1.007A5.579,5.579,0,1,1,104.5,52.8a.9.9,0,0,0-1.5,1.011A7.385,7.385,0,1,0,109.131,42.3Z" transform="translate(-96.655 -42.299)" fill="#1e4685"/>
  </g>
</svg>
